<svg xmlns="http://www.w3.org/2000/svg" width="111" height="50" viewBox="0 0 111 50">
  <g fill="none" fill-rule="evenodd" transform="translate(-1)">
    <g fill="#FFF" transform="translate(1)">
      <g transform="translate(40.306 9.131)">
        <path d="M3.06219048,6.95798664 C3.43265038,6.95798664 3.74201917,6.80436889 3.99030612,6.49712879 C4.23859308,6.18988869 4.36273469,5.7881192 4.36273469,5.29180827 C4.36273469,4.03133607 3.93316529,3.40110942 3.07401361,3.40110942 C2.19121554,3.40110942 1.74982313,3.99982474 1.74982313,5.19727333 C1.74982313,5.71721812 1.87199424,6.14065165 2.11634014,6.46758662 C2.36068603,6.7945216 2.67596632,6.95798664 3.06219048,6.95798664 Z M4.33908844,8.05695535 L4.32726531,7.34794328 C3.97256966,7.92303372 3.43265215,8.21057463 2.7074966,8.21057463 C2.3370367,8.21057463 1.99811038,8.13967413 1.69070748,7.99787101 C1.38330459,7.85606789 1.11925734,7.65124423 0.898557823,7.38339388 C0.677858307,7.11554354 0.504454145,6.78861346 0.378340136,6.40259385 C0.252226127,6.01657424 0.189170068,5.5793545 0.189170068,5.09092152 C0.189170068,4.64975625 0.242373618,4.2460173 0.348782313,3.87969257 C0.455191008,3.51336783 0.610860653,3.19628505 0.815795918,2.9284347 C1.02073118,2.66058436 1.27098492,2.45379124 1.56656463,2.30804914 C1.86214434,2.16230704 2.19910015,2.08943709 2.57744218,2.08943709 C3.2947156,2.08943709 3.87010214,2.39273366 4.30361905,2.99933591 L4.30361905,0.116020157 L5.81697959,0.116020157 L5.81697959,8.05695535 L4.33908844,8.05695535 Z M10.3699592,4.5827962 C10.3620771,4.37009152 10.3246375,4.18299298 10.2576395,4.02149498 C10.1906414,3.85999698 10.1019688,3.72607382 9.99161905,3.61972147 C9.88126929,3.51336913 9.75515717,3.4345908 9.61327891,3.38338412 C9.47140065,3.33217743 9.32558352,3.30657448 9.17582313,3.30657448 C8.86842023,3.30657448 8.60240249,3.4188336 8.37776191,3.64335521 C8.15312133,3.86787682 8.02503871,4.18102069 7.99351021,4.5827962 L10.3699592,4.5827962 Z M7.94621769,5.55177937 C7.96986407,5.99294464 8.09794668,6.34350821 8.33046939,6.6034806 C8.56299209,6.863453 8.86841988,6.99343724 9.24676191,6.99343724 C9.49898992,6.99343724 9.72165663,6.93632295 9.91476871,6.82209266 C10.1078808,6.70786237 10.2320224,6.54833625 10.2871973,6.34350951 L11.8714966,6.34350951 C11.6902077,6.94223381 11.3749274,7.40308705 10.9256463,7.72608305 C10.4763651,8.04907905 9.9403886,8.21057463 9.31770068,8.21057463 C7.37869779,8.21057463 6.40921089,7.15494499 6.40921089,5.04365405 C6.40921089,4.59461083 6.47226694,4.18890242 6.59838095,3.82651666 C6.72449496,3.4641309 6.90775163,3.15295649 7.14815646,2.8929841 C7.38856129,2.63301171 7.68216607,2.43409642 8.02897959,2.29623227 C8.37579312,2.15836813 8.77383449,2.08943709 9.22311565,2.08943709 C10.121678,2.08943709 10.8015011,2.376978 11.2626054,2.95206844 C11.7237098,3.52715888 11.9542585,4.39372053 11.9542585,5.55177937 L7.94621769,5.55177937 Z M16.0343129,4.00376968 C15.9949023,3.73591933 15.8944067,3.54094297 15.7328231,3.41883472 C15.5712396,3.29672648 15.3249268,3.23567327 14.9938776,3.23567327 C14.6785925,3.23567327 14.4401618,3.27309298 14.2785782,3.34793351 C14.1169947,3.42277405 14.0362041,3.55078884 14.0362041,3.73198172 C14.0362041,3.88954074 14.1169947,4.01558607 14.2785782,4.11012149 C14.4401618,4.2046569 14.6746515,4.29525199 14.9820544,4.38190945 C15.4865105,4.52371257 15.9121389,4.64384953 16.2589524,4.74232392 C16.6057659,4.84079831 16.8836067,4.95699635 17.092483,5.09092152 C17.3013593,5.22484669 17.4511175,5.39225065 17.5417619,5.5931384 C17.6324064,5.79402616 17.6777279,6.06384195 17.6777279,6.40259385 C17.6777279,6.92253864 17.4609727,7.35385 17.0274558,7.69654088 C16.5939389,8.03923176 15.9515553,8.21057463 15.1002857,8.21057463 C14.6825331,8.21057463 14.3041967,8.16330763 13.9652653,8.06877222 C13.6263339,7.9742368 13.3366701,7.83834418 13.0962653,7.66109028 C12.8558605,7.48383637 12.6706333,7.27113488 12.5405782,7.02297941 C12.4105232,6.77482395 12.3415556,6.49713033 12.3336735,6.18989023 L13.9179728,6.18989023 C13.9179728,6.46561853 14.0263504,6.67832002 14.2431088,6.82800109 C14.4598673,6.97768217 14.7416491,7.05252158 15.0884626,7.05252158 C15.3801012,7.05252158 15.630355,7.00722404 15.8392313,6.9166276 C16.0481076,6.82603116 16.1525442,6.68619962 16.1525442,6.49712879 C16.1525442,6.28442411 16.0756946,6.13080636 15.9219932,6.03627095 C15.7682918,5.94173553 15.533802,5.85901828 15.218517,5.78811672 C14.651004,5.6620695 14.1938475,5.5301158 13.847034,5.39225165 C13.5002205,5.2543875 13.2302617,5.10273922 13.0371497,4.93730224 C12.8440376,4.77186526 12.7139845,4.5906751 12.6469864,4.39372632 C12.5799883,4.19677754 12.5464898,3.97619821 12.5464898,3.73198172 C12.5464898,3.51139908 12.5918113,3.3026365 12.6824558,3.10568772 C12.7731002,2.90873894 12.9169469,2.73542661 13.114,2.58574554 C13.3110531,2.43606446 13.5672184,2.31592751 13.8825034,2.22533107 C14.1977884,2.13473463 14.5840068,2.08943709 15.0411701,2.08943709 C15.8766754,2.08943709 16.487531,2.2588105 16.8737551,2.5975624 C17.2599793,2.93631431 17.4727935,3.40504538 17.5122041,4.00376968 L16.0343129,4.00376968 Z M18.1990204,8.05695535 L18.1990204,2.24305637 L19.7360272,2.24305637 L19.7360272,8.05695535 L18.1990204,8.05695535 Z M18.1990204,1.54586117 L18.1990204,0.116020157 L19.7360272,0.116020157 L19.7360272,1.54586117 L18.1990204,1.54586117 Z M23.2840408,6.8989023 C23.6623829,6.8989023 23.9756926,6.75513185 24.2239796,6.46758662 C24.4722666,6.1800414 24.5964082,5.7881192 24.5964082,5.29180827 C24.5964082,4.04709197 24.1589568,3.42474315 23.2840408,3.42474315 C22.4091249,3.42474315 21.9716735,4.01558064 21.9716735,5.19727333 C21.9716735,5.71721812 22.0958151,6.13080435 22.344102,6.43804445 C22.592389,6.74528456 22.9056988,6.8989023 23.2840408,6.8989023 Z M24.5491157,7.27704207 C24.4387659,7.53701446 24.2397452,7.73986867 23.9520476,7.88561077 C23.66435,8.03135286 23.3313352,8.10422282 22.9529932,8.10422282 C22.4721835,8.10422282 22.0682307,8.01953612 21.7411225,7.85016016 C21.4140142,7.68078421 21.149967,7.45823542 20.9489728,7.18250713 C20.7479786,6.90677883 20.6021615,6.58772659 20.511517,6.22534083 C20.4208726,5.86295507 20.375551,5.49269692 20.375551,5.11455526 C20.375551,4.66551203 20.4425481,4.25389525 20.5765442,3.87969257 C20.7105404,3.50548988 20.8918265,3.18643764 21.1204082,2.92252627 C21.3489898,2.6586149 21.6169781,2.45379124 21.924381,2.30804914 C22.2317839,2.16230704 22.5628282,2.08943709 22.9175238,2.08943709 C23.6426794,2.08943709 24.1865379,2.38091691 24.5491157,2.96388531 L24.5491157,2.24305637 L26.0861225,2.24305637 L26.0861225,8.11603969 C26.0861225,8.55720496 26.0112434,8.94518824 25.861483,9.28000117 C25.7117226,9.6148141 25.5067904,9.89447718 25.2466803,10.1189988 C24.9865701,10.3435204 24.6791718,10.5148633 24.3244762,10.6330325 C23.9697805,10.7512018 23.5914442,10.8102856 23.1894558,10.8102856 C22.7874674,10.8102856 22.413072,10.7531713 22.0662585,10.638941 C21.719445,10.5247107 21.4218992,10.3632151 21.1736123,10.1544494 C20.9253253,9.94568368 20.7302456,9.69162357 20.5883674,9.39226142 C20.4464891,9.09289927 20.375551,8.75415244 20.375551,8.37601078 L21.8061497,8.37601078 C21.8061497,8.73051859 21.9224093,9.00427329 22.154932,9.1972831 C22.3874547,9.3902929 22.6968235,9.48679636 23.0830476,9.48679636 C23.4929182,9.48679636 23.8397265,9.37453724 24.123483,9.15001563 C24.4072395,8.92549401 24.5491157,8.62022798 24.5491157,8.23420837 L24.5491157,7.27704207 Z M30.5326939,8.05695535 L30.5326939,4.53552873 C30.5326939,4.08648551 30.4578148,3.78318893 30.3080544,3.62562991 C30.158294,3.46807088 29.9021288,3.38929255 29.539551,3.38929255 C28.7434563,3.38929255 28.345415,3.83439012 28.345415,4.72459862 L28.345415,8.05695535 L26.8084082,8.05695535 L26.8084082,2.24305637 L28.2744762,2.24305637 L28.2744762,3.09387085 C28.4557651,2.7629969 28.6961663,2.5128757 28.9956871,2.34349975 C29.2952079,2.17412379 29.6814262,2.08943709 30.1543537,2.08943709 C30.4302281,2.08943709 30.6863934,2.13079571 30.9228572,2.2135142 C31.1593209,2.29623269 31.3622826,2.42030856 31.5317483,2.58574554 C31.701214,2.75118251 31.8352081,2.95403672 31.9337347,3.19431423 C32.0322613,3.43459175 32.0815238,3.71228536 32.0815238,4.02740341 L32.0815238,8.05695535 L30.5326939,8.05695535 Z M3.06219048,18.7748545 C3.43265038,18.7748545 3.74201917,18.6212367 3.99030612,18.3139966 C4.23859308,18.0067565 4.36273469,17.6049871 4.36273469,17.1086761 C4.36273469,15.8482039 3.93316529,15.2179773 3.07401361,15.2179773 C2.19121554,15.2179773 1.74982313,15.8166926 1.74982313,17.0141412 C1.74982313,17.534086 1.87199424,17.9575195 2.11634014,18.2844545 C2.36068603,18.6113894 2.67596632,18.7748545 3.06219048,18.7748545 Z M4.33908844,19.8738232 L4.32726531,19.1648111 C3.97256966,19.7399016 3.43265215,20.0274425 2.7074966,20.0274425 C2.3370367,20.0274425 1.99811038,19.956542 1.69070748,19.8147389 C1.38330459,19.6729357 1.11925734,19.4681121 0.898557823,19.2002617 C0.677858307,18.9324114 0.504454145,18.6054813 0.378340136,18.2194617 C0.252226127,17.8334421 0.189170068,17.3962223 0.189170068,16.9077894 C0.189170068,16.4666241 0.242373618,16.0628851 0.348782313,15.6965604 C0.455191008,15.3302357 0.610860653,15.0131529 0.815795918,14.7453026 C1.02073118,14.4774522 1.27098492,14.2706591 1.56656463,14.124917 C1.86214434,13.9791749 2.19910015,13.9063049 2.57744218,13.9063049 C3.2947156,13.9063049 3.87010214,14.2096015 4.30361905,14.8162038 L4.30361905,11.932888 L5.81697959,11.932888 L5.81697959,19.8738232 L4.33908844,19.8738232 Z M6.53926531,19.8738232 L6.53926531,14.0599242 L7.98168708,14.0599242 L7.98168708,14.7571194 C8.10780109,14.5601706 8.23982471,14.4065529 8.37776191,14.2962616 C8.5156991,14.1859703 8.65757524,14.1012835 8.80339456,14.0421989 C8.94921388,13.9831143 9.09700152,13.9456946 9.24676191,13.9299387 C9.39652229,13.9141828 9.55022144,13.9063049 9.70786395,13.9063049 L9.90885714,13.9063049 L9.90885714,15.4779484 C9.76697888,15.4543145 9.62510275,15.4424978 9.48322449,15.4424978 C8.54525155,15.4424978 8.07627211,15.9112288 8.07627211,16.848705 L8.07627211,19.8738232 L6.53926531,19.8738232 Z M14.1544354,19.8738232 L14.1544354,19.0584593 C13.7603291,19.7044513 13.1573555,20.0274425 12.3454966,20.0274425 C12.053858,20.0274425 11.7878402,19.9762366 11.5474354,19.8738232 C11.3070305,19.7714098 11.1001279,19.6256699 10.9267211,19.4365991 C10.7533143,19.2475283 10.6173497,19.02301 10.5188231,18.7630376 C10.4202966,18.5030652 10.371034,18.2115854 10.371034,17.8885894 L10.371034,14.0599242 L11.9080408,14.0599242 L11.9080408,17.652252 C11.9080408,18.3770236 12.2351441,18.7394039 12.8893605,18.7394039 C13.2834668,18.7394039 13.5810126,18.615328 13.7820068,18.3671725 C13.983001,18.1190171 14.0834966,17.8019343 14.0834966,17.4159147 L14.0834966,14.0599242 L15.6086803,14.0599242 L15.6086803,19.8738232 L14.1544354,19.8738232 Z M19.1212245,18.7157701 C19.4995665,18.7157701 19.8128763,18.5719997 20.0611633,18.2844545 C20.3094502,17.9969092 20.4335918,17.6049871 20.4335918,17.1086761 C20.4335918,15.8639598 19.9961404,15.241611 19.1212245,15.241611 C18.2463086,15.241611 17.8088571,15.8324485 17.8088571,17.0141412 C17.8088571,17.534086 17.9329988,17.9476722 18.1812857,18.2549123 C18.4295727,18.5621524 18.7428825,18.7157701 19.1212245,18.7157701 Z M20.3862993,19.0939099 C20.2759496,19.3538823 20.0769289,19.5567365 19.7892313,19.7024786 C19.5015337,19.8482207 19.1685189,19.9210907 18.7901769,19.9210907 C18.3093672,19.9210907 17.9054143,19.836404 17.5783061,19.667028 C17.2511979,19.4976521 16.9871507,19.2751033 16.7861565,18.999375 C16.5851623,18.7236467 16.4393451,18.4045944 16.3487007,18.0422087 C16.2580562,17.6798229 16.2127347,17.3095648 16.2127347,16.9314231 C16.2127347,16.4823799 16.2797318,16.0707631 16.4137279,15.6965604 C16.547724,15.3223577 16.7290102,15.0033055 16.9575918,14.7393941 C17.1861735,14.4754827 17.4541617,14.2706591 17.7615646,14.124917 C18.0689675,13.9791749 18.4000118,13.9063049 18.7547075,13.9063049 C19.479863,13.9063049 20.0237215,14.1977848 20.3862993,14.7807532 L20.3862993,14.0599242 L21.9233061,14.0599242 L21.9233061,19.9329075 C21.9233061,20.3740728 21.8484271,20.7620561 21.6986667,21.096869 C21.5489063,21.4316819 21.3439741,21.711345 21.083864,21.9358666 C20.8237538,22.1603882 20.5163555,22.3317311 20.1616599,22.4499004 C19.8069642,22.5680697 19.4286279,22.6271534 19.0266395,22.6271534 C18.6246511,22.6271534 18.2502557,22.5700391 17.9034422,22.4558088 C17.5566287,22.3415785 17.2590829,22.1800829 17.0107959,21.9713172 C16.762509,21.7625515 16.5674293,21.5084914 16.425551,21.2091293 C16.2836728,20.9097671 16.2127347,20.5710203 16.2127347,20.1928786 L17.6433333,20.1928786 C17.6433333,20.5473864 17.7595929,20.8211411 17.9921157,21.0141509 C18.2246384,21.2071607 18.5340071,21.3036642 18.9202313,21.3036642 C19.3301018,21.3036642 19.6769102,21.1914051 19.9606667,20.9668835 C20.2444232,20.7423619 20.3862993,20.4370958 20.3862993,20.0510762 L20.3862993,19.0939099 Z"/>
        <path d="M24.4556054,19.8738232 L24.4556054,18.278546 L26.0990204,18.278546 L26.0990204,19.8738232 L24.4556054,19.8738232 Z M31.7160816,17.7704207 C31.676671,18.1091726 31.5801164,18.4164081 31.426415,18.6921364 C31.2727135,18.9678647 31.0776338,19.2041997 30.8411701,19.4011485 C30.6047063,19.5980973 30.3347476,19.751715 30.0312857,19.8620063 C29.7278239,19.9722976 29.3987501,20.0274425 29.0440544,20.0274425 C28.6499481,20.0274425 28.2893463,19.9624504 27.9622381,19.8324642 C27.6351299,19.702478 27.3533481,19.5055321 27.1168844,19.2416208 C26.8804206,18.9777094 26.6971639,18.6507793 26.5671088,18.2608207 C26.4370538,17.8708621 26.3720272,17.4159173 26.3720272,16.8959725 C26.3720272,16.3760277 26.4370538,15.9269912 26.5671088,15.5488496 C26.6971639,15.1707079 26.8804206,14.861503 27.1168844,14.6212254 C27.3533481,14.3809479 27.6390709,14.2017272 27.9740612,14.083558 C28.3090516,13.9653887 28.6814764,13.9063049 29.0913469,13.9063049 C29.469689,13.9063049 29.8145268,13.9575108 30.1258707,14.0599242 C30.4372147,14.1623376 30.709144,14.3120164 30.9416667,14.5089652 C31.1741894,14.705914 31.357446,14.942249 31.4914422,15.2179773 C31.6254383,15.4937056 31.7042584,15.8009411 31.7279048,16.139693 L30.1790748,16.139693 C30.1396642,15.8403308 30.0194636,15.6059653 29.8184694,15.4365893 C29.6174752,15.2672134 29.3711625,15.1825267 29.0795238,15.1825267 C28.9139992,15.1825267 28.7603,15.2100991 28.6184218,15.2652447 C28.4765435,15.3203904 28.3524019,15.4129549 28.2459932,15.5429411 C28.1395845,15.6729273 28.0548529,15.8462397 27.9917959,16.0628833 C27.9287389,16.279527 27.8972109,16.5454038 27.8972109,16.8605219 C27.8972109,17.4986359 28.0115,17.9713059 28.2400816,18.278546 C28.4686633,18.5857861 28.7327105,18.7394039 29.0322313,18.7394039 C29.3317521,18.7394039 29.5879173,18.6566866 29.8007347,18.4912497 C30.0135521,18.3258127 30.1357232,18.0855388 30.1672517,17.7704207 L31.7160816,17.7704207 Z M35.0749252,18.7394039 C36.0128981,18.7394039 36.4818776,18.1485664 36.4818776,16.9668737 C36.4818776,15.793059 36.0128981,15.2061604 35.0749252,15.2061604 C34.1369522,15.2061604 33.6679728,15.793059 33.6679728,16.9668737 C33.6679728,18.1485664 34.1369522,18.7394039 35.0749252,18.7394039 Z M35.0749252,20.0274425 C34.6019976,20.0274425 34.1803102,19.9526031 33.8098503,19.802922 C33.4393904,19.6532409 33.1260806,19.4444783 32.8699116,19.176628 C32.6137425,18.9087776 32.4186628,18.5857865 32.2846667,18.2076448 C32.1506705,17.8295032 32.0836735,17.4159169 32.0836735,16.9668737 C32.0836735,16.5099525 32.152641,16.0924274 32.2905782,15.7142857 C32.4285154,15.3361441 32.6275361,15.0131529 32.8876463,14.7453026 C33.1477564,14.4774522 33.4610662,14.2706591 33.827585,14.124917 C34.1941039,13.9791749 34.6098798,13.9063049 35.0749252,13.9063049 C35.5320885,13.9063049 35.9419528,13.9791749 36.3045306,14.124917 C36.6671084,14.2706591 36.9764772,14.4754827 37.2326463,14.7393941 C37.4888153,15.0033055 37.6858655,15.3243272 37.8238027,15.7024688 C37.9617399,16.0806105 38.0307075,16.5020746 38.0307075,16.9668737 C38.0307075,17.4316728 37.9617399,17.8511674 37.8238027,18.2253701 C37.6858655,18.5995728 37.4888153,18.9205945 37.2326463,19.1884449 C36.9764772,19.4562952 36.6651379,19.6630883 36.2986191,19.8088304 C35.9321002,19.9545725 35.5242063,20.0274425 35.0749252,20.0274425 Z" opacity=".2"/>
      </g>
      <path d="M2.67913783,0 L29.5657601,0 C31.0454071,-2.71806738e-16 32.244898,1.19949086 32.244898,2.67913783 L32.244898,29.5486836 C32.244898,31.0283305 31.0454071,32.2278214 29.5657601,32.2278214 L2.67913783,32.2278214 C1.19949086,32.2278214 -7.06973928e-16,31.0283305 -8.8817842e-16,29.5486836 L0,2.67913783 C-1.81204492e-16,1.19949086 1.19949086,-6.16371682e-16 2.67913783,-8.8817842e-16 Z M15.2920341,24.0343075 C20.4507926,24.0343075 24.0470425,21.0074981 24.0470425,16.3755626 C24.0470425,11.7894879 20.4507926,8.73974818 15.2672324,8.73974818 L9.99464343,8.73974818 C9.30414151,8.73974818 8.74437911,9.29951058 8.74437911,9.9900125 L8.74437911,22.7840432 C8.74437911,23.4745451 9.30414151,24.0343075 9.99464343,24.0343075 L15.2920341,24.0343075 Z"/>
    </g>
    <g transform="rotate(90 16.671 63.219)">
      <path fill="#A137FB" d="M1.43636364,0 L1.43636364,0 C2.22964537,-1.4572349e-16 2.87272727,0.643081905 2.87272727,1.43636364 L2.87272727,19.6947797 L0,19.6947797 L0,1.43636364 C-9.71489933e-17,0.643081905 0.643081905,1.4572349e-16 1.43636364,0 Z"/>
      <polygon fill="#FD2E8C" points="0 19.695 2.873 19.695 2.873 39.39 0 39.39"/>
      <polygon fill="#FFAD00" points="0 39.39 2.873 39.39 2.873 59.084 0 59.084"/>
      <path fill="#02A8F2" d="M0,59.0843392 L2.87272727,59.0843392 L2.87272727,77.3427553 C2.87272727,78.1360371 2.22964537,78.779119 1.43636364,78.779119 L1.43636364,78.779119 C0.643081905,78.779119 1.65146123e-15,78.1360371 1.55431223e-15,77.3427553 L0,59.0843392 Z"/>
    </g>
    <g transform="translate(88 20)">
      <rect width="23.4" height="10.2" fill="#302C36" fill-rule="nonzero" rx=".72"/>
      <text fill="#FFF" font-family="Helvetica" font-size="4.32" letter-spacing=".36">
        <tspan x="4.8" y="6.719">BET</tspan> <tspan x="14.282" y="6.719">A</tspan>
      </text>
    </g>
  </g>
</svg>
