<svg xmlns="http://www.w3.org/2000/svg" width="209" height="40" viewBox="0 0 209 40">
  <g fill="none" fill-rule="evenodd">
    <rect width="209" height="40" fill="#71BB6E" fill-rule="nonzero" opacity=".9" rx="5"/>
    <g fill="#FFFFFE" transform="translate(16 8)">
      <path d="M12.4929644,22.3418803 C10.7401501,22.3418803 9.01500938,21.8698955 7.50515947,20.9767331 C7.34333959,20.8808167 7.16041276,20.8319088 6.9760788,20.8319088 C6.88320826,20.8319088 6.79033771,20.8442545 6.6988743,20.8694207 L3.41697936,21.7811016 L4.56003752,19.2317189 C4.71575985,18.8850902 4.67589118,18.4810066 4.45590994,18.1723647 C3.23311445,16.4567901 2.58677298,14.4306743 2.58677298,12.3133903 C2.58677298,6.78347578 7.0304878,2.28490028 12.4929644,2.28490028 C17.9554409,2.28490028 22.3991557,6.78347578 22.3991557,12.3133903 C22.3991557,17.8433048 17.9554409,22.3418803 12.4929644,22.3418803 Z M12.4929644,0.162867996 C5.87476548,0.162867996 0.490619137,5.61348528 0.490619137,12.3133903 C0.490619137,14.6704653 1.15150094,16.9339981 2.4075985,18.8983856 L0.584427767,22.9643875 C0.416041276,23.3395062 0.477485929,23.7787274 0.74108818,24.0916429 C0.943245779,24.331434 1.23639775,24.4643875 1.53893058,24.4643875 C1.63086304,24.4643875 1.72420263,24.4520418 1.81613508,24.4264008 L6.83958724,23.0308642 C8.57410882,23.9700855 10.5192308,24.4643875 12.4929644,24.4643875 C19.1111632,24.4643875 24.4957786,19.0132953 24.4957786,12.3133903 C24.4957786,5.61348528 19.1111632,0.162867996 12.4929644,0.162867996 Z"/>
      <path d="M17.1074109,14.1329535 C16.6050657,13.828585 15.9507505,13.488604 15.358818,13.7340931 C14.9043152,13.9221273 14.6144465,14.6419753 14.3198874,15.0099715 C14.1688555,15.1984805 13.988743,15.2279202 13.7565666,15.1334283 C12.0515947,14.4458689 10.7443715,13.2934473 9.80347092,11.7051282 C9.64399625,11.4586895 9.67260788,11.2640076 9.86491557,11.0351377 C10.1491557,10.6965812 10.5060976,10.311491 10.5830206,9.85470085 C10.6599437,9.39838557 10.4484053,8.86419753 10.2617261,8.45773979 C10.0234522,7.9382716 9.75703565,7.19705603 9.2434334,6.9031339 C8.7706379,6.63295347 8.14821764,6.78442545 7.72701689,7.13152896 C7.00046904,7.73076923 6.64962477,8.66904084 6.65994371,9.5997151 C6.66322702,9.86419753 6.69512195,10.1282051 6.75609756,10.3831909 C6.90290807,10.997151 7.18292683,11.5698006 7.49859287,12.1149098 C7.73592871,12.525641 7.99437148,12.9245014 8.27345216,13.3076923 C9.18527205,14.5622032 10.3203565,15.6524217 11.6341463,16.4667616 C12.2908068,16.874169 12.9976548,17.2307692 13.7303002,17.4757835 C14.5511257,17.7507123 15.282833,18.0365622 16.1697936,17.8660969 C17.09803,17.6875594 18.0136023,17.1058879 18.3822702,16.199905 C18.4910882,15.9320988 18.5459662,15.6329535 18.4849906,15.3499525 C18.358349,14.7644824 17.5755159,14.4164292 17.1074109,14.1329535"/>
    </g>
    <text fill="#FFF" font-family="Helvetica" font-size="12">
      <tspan x="60" y="25">9867069236</tspan>
    </text>
  </g>
</svg>
